<svg width="64" height="64" viewBox="0 0 64 64" fill="none" xmlns="http://www.w3.org/2000/svg">
  <!-- Background circle -->
  <circle cx="32" cy="32" r="30" fill="#2563EB" stroke="#1E40AF" stroke-width="2"/>
  
  <!-- Git branch icon -->
  <circle cx="20" cy="16" r="3" fill="#FFFFFF"/>
  <circle cx="44" cy="16" r="3" fill="#FFFFFF"/>  
  <circle cx="20" cy="48" r="3" fill="#FFFFFF"/>
  <circle cx="44" cy="48" r="3" fill="#FFFFFF"/>
  
  <!-- Branch lines -->
  <path d="M20 19 L20 45" stroke="#FFFFFF" stroke-width="2" fill="none"/>
  <path d="M23 16 L41 16" stroke="#FFFFFF" stroke-width="2" fill="none"/>
  <path d="M44 19 L44 32 L32 32 L32 45 L23 45" stroke="#FFFFFF" stroke-width="2" fill="none"/>
  
  <!-- File icon overlay -->
  <rect x="26" y="24" width="16" height="20" rx="2" fill="#FFFFFF" opacity="0.9"/>
  <rect x="28" y="28" width="12" height="1" fill="#2563EB"/>
  <rect x="28" y="31" width="12" height="1" fill="#2563EB"/>  
  <rect x="28" y="34" width="8" height="1" fill="#2563EB"/>
  <rect x="28" y="37" width="10" height="1" fill="#2563EB"/>
  
  <!-- Edit cursor -->
  <path d="M36 26 L38 24 L40 26 L38 28 Z" fill="#F59E0B"/>
</svg>
