<svg width="64" height="64" viewBox="0 0 64 64" fill="none" xmlns="http://www.w3.org/2000/svg">
  <!-- Folder base (blue - representing you/system) -->
  <path d="M8 16 L8 52 C8 54.2091 9.7909 56 12 56 L52 56 C54.2091 56 56 54.2091 56 52 L56 24 C56 21.7909 54.2091 20 52 20 L28 20 L24 16 L12 16 C9.7909 16 8 17.7909 8 20 Z" fill="#3B82F6" stroke="#1E40AF" stroke-width="1.5"/>
  
  <!-- Folder tab -->
  <path d="M8 16 L24 16 L28 20 L52 20 C54.2091 20 56 21.7909 56 24 L56 22 C56 19.7909 54.2091 18 52 18 L28 18 L24 14 L12 14 C9.7909 14 8 15.7909 8 18 Z" fill="#60A5FA"/>
  
  <!-- Git logo (integrated into folder) -->
  <g transform="translate(18, 28)">
    <!-- Git branch structure -->
    <circle cx="4" cy="4" r="2.5" fill="#FFFFFF" opacity="0.9"/>
    <circle cx="16" cy="4" r="2.5" fill="#FFFFFF" opacity="0.9"/>
    <circle cx="4" cy="16" r="2.5" fill="#FFFFFF" opacity="0.9"/>
    <circle cx="16" cy="16" r="2.5" fill="#FFFFFF" opacity="0.9"/>
    
    <!-- Branch connections -->
    <path d="M4 6.5 L4 13.5" stroke="#FFFFFF" stroke-width="1.5" opacity="0.9"/>
    <path d="M6.5 4 L13.5 4" stroke="#FFFFFF" stroke-width="1.5" opacity="0.9"/>
    <path d="M16 6.5 L16 10 L10 10 L10 13.5 L6.5 13.5" stroke="#FFFFFF" stroke-width="1.5" opacity="0.9"/>
  </g>
  
  <!-- Claude AI editing (orange - representing Claude) -->
  <!-- AI brain/neural network representation -->
  <g transform="translate(36, 24)">
    <!-- Main AI node -->
    <circle cx="8" cy="8" r="4" fill="#F97316" stroke="#EA580C" stroke-width="1"/>
    
    <!-- Neural connections -->
    <circle cx="2" cy="4" r="1.5" fill="#FB923C"/>
    <circle cx="14" cy="4" r="1.5" fill="#FB923C"/>
    <circle cx="2" cy="12" r="1.5" fill="#FB923C"/>
    <circle cx="14" cy="12" r="1.5" fill="#FB923C"/>
    
    <!-- Connection lines -->
    <path d="M3.5 4.5 L6.5 6.5" stroke="#F97316" stroke-width="1"/>
    <path d="M12.5 4.5 L9.5 6.5" stroke="#F97316" stroke-width="1"/>
    <path d="M3.5 11.5 L6.5 9.5" stroke="#F97316" stroke-width="1"/>
    <path d="M12.5 11.5 L9.5 9.5" stroke="#F97316" stroke-width="1"/>
  </g>
  
  <!-- Editing cursor/activity indicator -->
  <g transform="translate(42, 30)">
    <!-- Active editing cursor -->
    <path d="M0 0 L8 3 L3 8 L0 0 Z" fill="#F97316"/>
    <path d="M1 1 L6 3 L3 6 L1 1 Z" fill="#FED7AA"/>
  </g>
  
  <!-- Code lines being edited (subtle) -->
  <g transform="translate(14, 36)" opacity="0.7">
    <rect x="0" y="0" width="24" height="1" fill="#DBEAFE" rx="0.5"/>
    <rect x="0" y="3" width="20" height="1" fill="#DBEAFE" rx="0.5"/>
    <rect x="0" y="6" width="18" height="1" fill="#FED7AA" rx="0.5"/>
    <rect x="0" y="9" width="22" height="1" fill="#DBEAFE" rx="0.5"/>
  </g>
  
  <!-- Collaboration indicator (small connecting line) -->
  <path d="M32 32 L40 28" stroke="#A855F7" stroke-width="2" opacity="0.6" stroke-dasharray="2,2">
    <animate attributeName="stroke-dashoffset" values="0;4" dur="1s" repeatCount="indefinite"/>
  </path>
  
  <!-- Small sparkles for AI activity -->
  <g opacity="0.8">
    <path d="M48 16 L49 18 L51 17 L49 19 L48 16 Z" fill="#F97316">
      <animate attributeName="opacity" values="0.8;0.3;0.8" dur="2s" repeatCount="indefinite"/>
    </path>
    <path d="M52 20 L53 22 L55 21 L53 23 L52 20 Z" fill="#FB923C">
      <animate attributeName="opacity" values="0.3;0.8;0.3" dur="1.5s" repeatCount="indefinite"/>
    </path>
  </g>
</svg>
